<mxfile host="app.diagrams.net" modified="2022-08-30T00:00:04.518Z" agent="5.0 (X11)" etag="m-k7jNowrmMaNNHbP1eV" version="20.2.7" type="github">
  <diagram id="UEc59SoR4-ApChejxHT7" name="Page-1">
    <mxGraphModel dx="1422" dy="793" grid="1" gridSize="10" guides="1" tooltips="1" connect="1" arrows="1" fold="1" page="1" pageScale="1" pageWidth="500" pageHeight="450" math="0" shadow="0">
      <root>
        <mxCell id="0" />
        <mxCell id="1" parent="0" />
        <mxCell id="bcU66o9WNbFK79mAson0-1" value="" style="rounded=1;whiteSpace=wrap;html=1;" vertex="1" parent="1">
          <mxGeometry x="20" y="10" width="160" height="260" as="geometry" />
        </mxCell>
        <mxCell id="bcU66o9WNbFK79mAson0-2" value="" style="rounded=1;whiteSpace=wrap;html=1;" vertex="1" parent="1">
          <mxGeometry x="320" y="10" width="160" height="260" as="geometry" />
        </mxCell>
        <mxCell id="bcU66o9WNbFK79mAson0-3" value="&lt;b&gt;LoadGen&lt;/b&gt;" style="text;html=1;strokeColor=none;fillColor=none;align=center;verticalAlign=middle;whiteSpace=wrap;rounded=0;" vertex="1" parent="1">
          <mxGeometry x="20" y="10" width="160" height="30" as="geometry" />
        </mxCell>
        <mxCell id="bcU66o9WNbFK79mAson0-4" value="&lt;b&gt;DuT&lt;/b&gt;" style="text;html=1;strokeColor=none;fillColor=none;align=center;verticalAlign=middle;whiteSpace=wrap;rounded=0;" vertex="1" parent="1">
          <mxGeometry x="320" y="10" width="160" height="30" as="geometry" />
        </mxCell>
        <mxCell id="bcU66o9WNbFK79mAson0-8" style="edgeStyle=orthogonalEdgeStyle;rounded=0;orthogonalLoop=1;jettySize=auto;html=1;targetPerimeterSpacing=0;endArrow=none;startArrow=block;endFill=0;strokeWidth=3;" edge="1" parent="1" source="bcU66o9WNbFK79mAson0-6" target="bcU66o9WNbFK79mAson0-7">
          <mxGeometry relative="1" as="geometry">
            <Array as="points">
              <mxPoint x="130" y="330" />
              <mxPoint x="370" y="330" />
            </Array>
          </mxGeometry>
        </mxCell>
        <mxCell id="bcU66o9WNbFK79mAson0-41" style="edgeStyle=orthogonalEdgeStyle;rounded=0;orthogonalLoop=1;jettySize=auto;html=1;entryX=0.801;entryY=1.002;entryDx=0;entryDy=0;startArrow=none;startFill=0;endArrow=classic;endFill=1;targetPerimeterSpacing=0;entryPerimeter=0;strokeWidth=3;" edge="1" parent="1" source="bcU66o9WNbFK79mAson0-6" target="bcU66o9WNbFK79mAson0-39">
          <mxGeometry relative="1" as="geometry">
            <Array as="points">
              <mxPoint x="130" y="240" />
              <mxPoint x="130" y="240" />
            </Array>
          </mxGeometry>
        </mxCell>
        <mxCell id="bcU66o9WNbFK79mAson0-6" value="NIC" style="rounded=1;whiteSpace=wrap;html=1;direction=west;fillColor=#dae8fc;strokeColor=#6c8ebf;" vertex="1" parent="1">
          <mxGeometry x="50" y="250" width="100" height="40" as="geometry" />
        </mxCell>
        <mxCell id="bcU66o9WNbFK79mAson0-9" style="edgeStyle=orthogonalEdgeStyle;rounded=0;orthogonalLoop=1;jettySize=auto;html=1;entryX=0.802;entryY=0.004;entryDx=0;entryDy=0;endArrow=none;targetPerimeterSpacing=0;startArrow=block;endFill=0;entryPerimeter=0;strokeWidth=3;" edge="1" parent="1" source="bcU66o9WNbFK79mAson0-7" target="bcU66o9WNbFK79mAson0-6">
          <mxGeometry relative="1" as="geometry">
            <Array as="points">
              <mxPoint x="430" y="390" />
              <mxPoint x="70" y="390" />
              <mxPoint x="70" y="290" />
            </Array>
          </mxGeometry>
        </mxCell>
        <mxCell id="bcU66o9WNbFK79mAson0-7" value="NIC" style="rounded=1;whiteSpace=wrap;html=1;direction=west;fillColor=#dae8fc;strokeColor=#6c8ebf;" vertex="1" parent="1">
          <mxGeometry x="350" y="250" width="100" height="40" as="geometry" />
        </mxCell>
        <mxCell id="bcU66o9WNbFK79mAson0-12" value="&lt;div&gt;Reflector&lt;/div&gt;&lt;div&gt;&lt;br&gt;&lt;/div&gt;&lt;div&gt;&lt;br&gt;&lt;/div&gt;&lt;div&gt;&lt;br&gt;&lt;/div&gt;&lt;div&gt;&lt;br&gt;&lt;/div&gt;&lt;div&gt;&lt;br&gt;&lt;/div&gt;" style="rounded=1;whiteSpace=wrap;html=1;fillColor=#f5f5f5;fontColor=#333333;strokeColor=#666666;" vertex="1" parent="1">
          <mxGeometry x="350" y="80" width="100" height="120" as="geometry" />
        </mxCell>
        <mxCell id="bcU66o9WNbFK79mAson0-13" style="edgeStyle=orthogonalEdgeStyle;rounded=0;orthogonalLoop=1;jettySize=auto;html=1;startArrow=none;endArrow=classic;endFill=1;targetPerimeterSpacing=0;entryX=0.8;entryY=1.004;entryDx=0;entryDy=0;entryPerimeter=0;startFill=0;strokeWidth=3;" edge="1" parent="1" source="bcU66o9WNbFK79mAson0-7" target="bcU66o9WNbFK79mAson0-7">
          <mxGeometry relative="1" as="geometry">
            <Array as="points">
              <mxPoint x="430" y="180" />
              <mxPoint x="370" y="180" />
            </Array>
          </mxGeometry>
        </mxCell>
        <mxCell id="bcU66o9WNbFK79mAson0-40" style="edgeStyle=orthogonalEdgeStyle;rounded=0;orthogonalLoop=1;jettySize=auto;html=1;startArrow=none;startFill=0;endArrow=classic;endFill=1;targetPerimeterSpacing=0;strokeWidth=3;" edge="1" parent="1" source="bcU66o9WNbFK79mAson0-39">
          <mxGeometry relative="1" as="geometry">
            <mxPoint x="70" y="250" as="targetPoint" />
            <Array as="points">
              <mxPoint x="70" y="250" />
            </Array>
          </mxGeometry>
        </mxCell>
        <mxCell id="bcU66o9WNbFK79mAson0-39" value="&lt;div&gt;Generator&lt;/div&gt;&lt;div&gt;&lt;br&gt;&lt;/div&gt;&lt;div&gt;&lt;br&gt;&lt;/div&gt;&lt;div&gt;&lt;br&gt;&lt;/div&gt;&lt;div&gt;&lt;br&gt;&lt;/div&gt;&lt;div&gt;&lt;br&gt;&lt;/div&gt;&lt;div&gt;&lt;br&gt;&lt;/div&gt;&lt;div&gt;&lt;br&gt;&lt;/div&gt;" style="rounded=1;whiteSpace=wrap;html=1;fillColor=#f5f5f5;strokeColor=#666666;fontColor=#333333;" vertex="1" parent="1">
          <mxGeometry x="50" y="50" width="100" height="130" as="geometry" />
        </mxCell>
        <mxCell id="bcU66o9WNbFK79mAson0-42" value="&lt;div&gt;Time&lt;/div&gt;&lt;div&gt;&lt;br&gt;&lt;/div&gt;" style="shape=note;whiteSpace=wrap;html=1;backgroundOutline=1;darkOpacity=0.05;size=7;fillColor=#d5e8d4;strokeColor=#82b366;" vertex="1" parent="1">
          <mxGeometry x="20" y="360" width="40" height="40" as="geometry" />
        </mxCell>
        <mxCell id="bcU66o9WNbFK79mAson0-43" value="" style="sketch=0;pointerEvents=1;shadow=0;dashed=0;html=1;strokeColor=none;fillColor=#505050;labelPosition=center;verticalLabelPosition=bottom;verticalAlign=top;outlineConnect=0;align=center;shape=mxgraph.office.concepts.clock;" vertex="1" parent="1">
          <mxGeometry x="25" y="380" width="15" height="15" as="geometry" />
        </mxCell>
        <mxCell id="bcU66o9WNbFK79mAson0-44" value="&lt;div&gt;Load&lt;/div&gt;&lt;div&gt;010...&lt;br&gt;&lt;/div&gt;" style="shape=note;whiteSpace=wrap;html=1;backgroundOutline=1;darkOpacity=0.05;size=7;fillColor=#ffe6cc;strokeColor=#d79b00;" vertex="1" parent="1">
          <mxGeometry x="80" y="400" width="40" height="40" as="geometry" />
        </mxCell>
        <mxCell id="bcU66o9WNbFK79mAson0-60" value="" style="shape=image;html=1;verticalAlign=top;verticalLabelPosition=bottom;labelBackgroundColor=#ffffff;imageAspect=0;aspect=fixed;image=https://cdn0.iconfinder.com/data/icons/phosphor-fill-vol-4/256/stamp-fill-128.png" vertex="1" parent="1">
          <mxGeometry x="60" y="260" width="20" height="20" as="geometry" />
        </mxCell>
        <mxCell id="bcU66o9WNbFK79mAson0-61" value="" style="shape=image;html=1;verticalAlign=top;verticalLabelPosition=bottom;labelBackgroundColor=#ffffff;imageAspect=0;aspect=fixed;image=https://cdn0.iconfinder.com/data/icons/phosphor-fill-vol-4/256/stamp-fill-128.png" vertex="1" parent="1">
          <mxGeometry x="120" y="260" width="20" height="20" as="geometry" />
        </mxCell>
        <mxCell id="bcU66o9WNbFK79mAson0-62" value="&lt;div&gt;Time&lt;/div&gt;&lt;div&gt;&lt;br&gt;&lt;/div&gt;" style="shape=note;whiteSpace=wrap;html=1;backgroundOutline=1;darkOpacity=0.05;size=7;fillColor=#d5e8d4;strokeColor=#82b366;" vertex="1" parent="1">
          <mxGeometry x="25" y="190" width="40" height="40" as="geometry" />
        </mxCell>
        <mxCell id="bcU66o9WNbFK79mAson0-63" value="&lt;div&gt;Load&lt;/div&gt;&lt;div&gt;010...&lt;br&gt;&lt;/div&gt;" style="shape=note;whiteSpace=wrap;html=1;backgroundOutline=1;darkOpacity=0.05;size=7;fillColor=#ffe6cc;strokeColor=#d79b00;" vertex="1" parent="1">
          <mxGeometry x="20" y="300" width="40" height="40" as="geometry" />
        </mxCell>
        <mxCell id="bcU66o9WNbFK79mAson0-65" value="&lt;div&gt;Load&lt;/div&gt;&lt;div&gt;010...&lt;br&gt;&lt;/div&gt;" style="shape=note;whiteSpace=wrap;html=1;backgroundOutline=1;darkOpacity=0.05;size=7;fillColor=#ffe6cc;strokeColor=#d79b00;" vertex="1" parent="1">
          <mxGeometry x="370" y="400" width="40" height="40" as="geometry" />
        </mxCell>
        <mxCell id="bcU66o9WNbFK79mAson0-68" value="&lt;div&gt;Load&lt;/div&gt;&lt;div&gt;010...&lt;br&gt;&lt;/div&gt;" style="shape=note;whiteSpace=wrap;html=1;backgroundOutline=1;darkOpacity=0.05;size=7;fillColor=#ffe6cc;strokeColor=#d79b00;" vertex="1" parent="1">
          <mxGeometry x="320" y="400" width="40" height="40" as="geometry" />
        </mxCell>
        <mxCell id="bcU66o9WNbFK79mAson0-69" value="&lt;div&gt;Load&lt;/div&gt;&lt;div&gt;010...&lt;br&gt;&lt;/div&gt;" style="shape=note;whiteSpace=wrap;html=1;backgroundOutline=1;darkOpacity=0.05;size=7;fillColor=#ffe6cc;strokeColor=#d79b00;" vertex="1" parent="1">
          <mxGeometry x="135" y="200" width="40" height="40" as="geometry" />
        </mxCell>
        <mxCell id="bcU66o9WNbFK79mAson0-70" value="&lt;div&gt;Time&lt;/div&gt;&lt;div&gt;&lt;br&gt;&lt;/div&gt;" style="shape=note;whiteSpace=wrap;html=1;backgroundOutline=1;darkOpacity=0.05;size=7;fillColor=#d5e8d4;strokeColor=#82b366;" vertex="1" parent="1">
          <mxGeometry x="100" y="130" width="40" height="40" as="geometry" />
        </mxCell>
        <mxCell id="bcU66o9WNbFK79mAson0-71" value="" style="sketch=0;pointerEvents=1;shadow=0;dashed=0;html=1;strokeColor=none;fillColor=#505050;labelPosition=center;verticalLabelPosition=bottom;verticalAlign=top;outlineConnect=0;align=center;shape=mxgraph.office.concepts.clock;" vertex="1" parent="1">
          <mxGeometry x="105" y="150" width="15" height="15" as="geometry" />
        </mxCell>
        <mxCell id="bcU66o9WNbFK79mAson0-72" value="" style="sketch=0;pointerEvents=1;shadow=0;dashed=0;html=1;strokeColor=none;fillColor=#505050;labelPosition=center;verticalLabelPosition=bottom;verticalAlign=top;outlineConnect=0;align=center;shape=mxgraph.office.concepts.clock;rotation=30;" vertex="1" parent="1">
          <mxGeometry x="122.5" y="150" width="15" height="15" as="geometry" />
        </mxCell>
        <mxCell id="bcU66o9WNbFK79mAson0-90" style="edgeStyle=orthogonalEdgeStyle;rounded=1;orthogonalLoop=1;jettySize=auto;html=1;startArrow=classic;startFill=1;endArrow=none;endFill=0;targetPerimeterSpacing=0;strokeWidth=1;fillColor=#f5f5f5;strokeColor=#666666;" edge="1" parent="1" source="bcU66o9WNbFK79mAson0-73">
          <mxGeometry relative="1" as="geometry">
            <mxPoint x="100" y="158" as="targetPoint" />
            <Array as="points">
              <mxPoint x="80" y="158" />
            </Array>
          </mxGeometry>
        </mxCell>
        <mxCell id="bcU66o9WNbFK79mAson0-73" value="" style="sketch=0;pointerEvents=1;shadow=0;dashed=0;html=1;strokeColor=none;fillColor=#505050;labelPosition=center;verticalLabelPosition=bottom;verticalAlign=top;outlineConnect=0;align=center;shape=mxgraph.office.concepts.bandwidth_calculator;" vertex="1" parent="1">
          <mxGeometry x="65" y="80" width="39" height="43" as="geometry" />
        </mxCell>
        <mxCell id="bcU66o9WNbFK79mAson0-75" value="&lt;div&gt;Load&lt;/div&gt;&lt;div&gt;010...&lt;br&gt;&lt;/div&gt;" style="shape=note;whiteSpace=wrap;html=1;backgroundOutline=1;darkOpacity=0.05;size=7;fillColor=#ffe6cc;strokeColor=#d79b00;" vertex="1" parent="1">
          <mxGeometry x="190" y="400" width="40" height="40" as="geometry" />
        </mxCell>
        <mxCell id="bcU66o9WNbFK79mAson0-76" value="&lt;div&gt;Load&lt;/div&gt;&lt;div&gt;010...&lt;br&gt;&lt;/div&gt;" style="shape=note;whiteSpace=wrap;html=1;backgroundOutline=1;darkOpacity=0.05;size=7;fillColor=#ffe6cc;strokeColor=#d79b00;" vertex="1" parent="1">
          <mxGeometry x="140" y="400" width="40" height="40" as="geometry" />
        </mxCell>
        <mxCell id="bcU66o9WNbFK79mAson0-79" value="&lt;div&gt;Time&lt;/div&gt;&lt;div&gt;&lt;br&gt;&lt;/div&gt;" style="shape=note;whiteSpace=wrap;html=1;backgroundOutline=1;darkOpacity=0.05;size=7;fillColor=#d5e8d4;strokeColor=#82b366;" vertex="1" parent="1">
          <mxGeometry x="260" y="400" width="40" height="40" as="geometry" />
        </mxCell>
        <mxCell id="bcU66o9WNbFK79mAson0-80" value="" style="sketch=0;pointerEvents=1;shadow=0;dashed=0;html=1;strokeColor=none;fillColor=#505050;labelPosition=center;verticalLabelPosition=bottom;verticalAlign=top;outlineConnect=0;align=center;shape=mxgraph.office.concepts.clock;" vertex="1" parent="1">
          <mxGeometry x="265" y="420" width="15" height="15" as="geometry" />
        </mxCell>
        <mxCell id="bcU66o9WNbFK79mAson0-83" value="&lt;div&gt;Time&lt;/div&gt;&lt;div&gt;&lt;br&gt;&lt;/div&gt;" style="shape=note;whiteSpace=wrap;html=1;backgroundOutline=1;darkOpacity=0.05;size=7;fillColor=#d5e8d4;strokeColor=#82b366;" vertex="1" parent="1">
          <mxGeometry x="225" y="280" width="40" height="40" as="geometry" />
        </mxCell>
        <mxCell id="bcU66o9WNbFK79mAson0-84" value="" style="sketch=0;pointerEvents=1;shadow=0;dashed=0;html=1;strokeColor=none;fillColor=#505050;labelPosition=center;verticalLabelPosition=bottom;verticalAlign=top;outlineConnect=0;align=center;shape=mxgraph.office.concepts.clock;" vertex="1" parent="1">
          <mxGeometry x="230" y="300" width="15" height="15" as="geometry" />
        </mxCell>
        <mxCell id="bcU66o9WNbFK79mAson0-85" value="&lt;div&gt;Load&lt;/div&gt;&lt;div&gt;010...&lt;br&gt;&lt;/div&gt;" style="shape=note;whiteSpace=wrap;html=1;backgroundOutline=1;darkOpacity=0.05;size=7;fillColor=#ffe6cc;strokeColor=#d79b00;" vertex="1" parent="1">
          <mxGeometry x="290" y="280" width="40" height="40" as="geometry" />
        </mxCell>
        <mxCell id="bcU66o9WNbFK79mAson0-86" value="&lt;div&gt;Load&lt;/div&gt;&lt;div&gt;010...&lt;br&gt;&lt;/div&gt;" style="shape=note;whiteSpace=wrap;html=1;backgroundOutline=1;darkOpacity=0.05;size=7;fillColor=#ffe6cc;strokeColor=#d79b00;" vertex="1" parent="1">
          <mxGeometry x="160" y="280" width="40" height="40" as="geometry" />
        </mxCell>
        <mxCell id="bcU66o9WNbFK79mAson0-87" value="&lt;div&gt;Load&lt;/div&gt;&lt;div&gt;010...&lt;br&gt;&lt;/div&gt;" style="shape=note;whiteSpace=wrap;html=1;backgroundOutline=1;darkOpacity=0.05;size=7;fillColor=#ffe6cc;strokeColor=#d79b00;" vertex="1" parent="1">
          <mxGeometry x="380" y="130" width="40" height="40" as="geometry" />
        </mxCell>
        <mxCell id="bcU66o9WNbFK79mAson0-88" value="&lt;div&gt;Load&lt;/div&gt;&lt;div&gt;010...&lt;br&gt;&lt;/div&gt;" style="shape=note;whiteSpace=wrap;html=1;backgroundOutline=1;darkOpacity=0.05;size=7;fillColor=#ffe6cc;strokeColor=#d79b00;" vertex="1" parent="1">
          <mxGeometry x="435.5" y="205" width="40" height="40" as="geometry" />
        </mxCell>
        <mxCell id="bcU66o9WNbFK79mAson0-89" value="&lt;div&gt;Load&lt;/div&gt;&lt;div&gt;010...&lt;br&gt;&lt;/div&gt;" style="shape=note;whiteSpace=wrap;html=1;backgroundOutline=1;darkOpacity=0.05;size=7;fillColor=#ffe6cc;strokeColor=#d79b00;" vertex="1" parent="1">
          <mxGeometry x="440" y="360" width="40" height="40" as="geometry" />
        </mxCell>
        <mxCell id="bcU66o9WNbFK79mAson0-91" value="&lt;div&gt;Load&lt;/div&gt;&lt;div&gt;010...&lt;br&gt;&lt;/div&gt;" style="shape=note;whiteSpace=wrap;html=1;backgroundOutline=1;darkOpacity=0.05;size=7;fillColor=#ffe6cc;strokeColor=#d79b00;" vertex="1" parent="1">
          <mxGeometry x="325" y="190" width="40" height="40" as="geometry" />
        </mxCell>
        <mxCell id="bcU66o9WNbFK79mAson0-92" value="&lt;div&gt;Time&lt;/div&gt;&lt;div&gt;&lt;br&gt;&lt;/div&gt;" style="shape=note;whiteSpace=wrap;html=1;backgroundOutline=1;darkOpacity=0.05;size=7;fillColor=#d5e8d4;strokeColor=#82b366;" vertex="1" parent="1">
          <mxGeometry x="440" y="300" width="40" height="40" as="geometry" />
        </mxCell>
        <mxCell id="bcU66o9WNbFK79mAson0-93" value="" style="sketch=0;pointerEvents=1;shadow=0;dashed=0;html=1;strokeColor=none;fillColor=#505050;labelPosition=center;verticalLabelPosition=bottom;verticalAlign=top;outlineConnect=0;align=center;shape=mxgraph.office.concepts.clock;" vertex="1" parent="1">
          <mxGeometry x="445" y="320" width="15" height="15" as="geometry" />
        </mxCell>
      </root>
    </mxGraphModel>
  </diagram>
</mxfile>
